<?xml version="1.0" encoding="UTF-8" standalone="no"?>
<svg
   xmlns="http://www.w3.org/2000/svg"
   viewBox="0 0 2000 2000"
   id="svg2"
   version="1.1">
  <metadata
     id="metadata8">
    <rdf:RDF>
      <cc:Work
         rdf:about="">
        <dc:format>image/svg+xml</dc:format>
        <dc:type
           rdf:resource="http://purl.org/dc/dcmitype/StillImage" />
        <dc:title></dc:title>
      </cc:Work>
    </rdf:RDF>
  </metadata>
  <defs
     id="defs6" />
  <path
     id="path3682"
     d="m 982.87284,1985.9309 c -95.5005,-4.0243 -192.5679,-22.599 -282.9438,-54.1438 -112.779,-39.3644 -220.1018,-100.7609 -311.5053,-178.2038 -31.7249,-26.8794 -73.0781,-67.0354 -98.4329,-95.5833 -97.0246,-109.2433 -167.9301,-235.3027 -209.241305,-372 -21.817,-72.1917 -34.8481,-145.0756 -40.4966,-226.5 -1.6123,-23.2416 -1.6123,-95.75839 0,-118.99999 4.057,-58.4825 10.8165,-105.7412 22.8137,-159.5 25.3194,-113.45481 73.096605,-225.28114 138.459105,-324.07426 38.7479,-58.56618 75.8959,-103.96602 126.3763,-154.44878 50.1359,-50.13826 94.0304,-86.16835 151.0217,-123.96351 40.7891,-27.05033 66.2941,-41.84769 107.5,-62.36888 119.2254,-59.376128 240.1978,-91.669598 379.5,-101.307168 38.92676,-2.69314 108.16706,-1.45216 152.99996,2.7422 191.2265,17.89026 372.4336,91.376948 523.4273,212.270598 52.1646,41.7658 107.7971,97.02917 149.8067,148.81265 34.5332,42.56758 72.0789,98.40719 98.7311,146.83714 9.433,17.1408 30.2904,59.36693 38.0338,77 70.6937,160.98161 97.0646,338.10401 76.4866,513.7296 -18.3345,156.4779 -73.6585,304.9627 -162.7365,436.7704 -49.4363,73.1503 -111.9487,142.7148 -180.249,200.5833 -105.0488,89.0041 -231.5855,156.9266 -362,194.3146 -104.196,29.8715 -210.1326,42.5596 -317.55086,38.033 z m 96.05086,-83.0045 c 167.653,-9.9759 328.0346,-65.757 465,-161.728 95.974,-67.2486 181.5021,-156.2984 243.2105,-253.225 84.7994,-133.1962 131.0656,-275.6908 141.3928,-435.4734 1.4911,-23.0701 1.4871,-81.73529 -0.01,-104.99999 -1.1731,-18.2634 -4.5283,-53.8745 -5.9357,-63 l -0.7712,-5 -2.9446,5.2995 c -33.7132,60.6752 -50.2914,88.3433 -78.0743,130.30199 -92.1351,139.1452 -207.8259,266.7252 -332.3703,366.5271 -80.2728,64.3255 -163.3236,114.8217 -246.5,149.8758 -160.6944,67.7235 -329.72936,78.778 -473.99996,30.9983 -45.5834,-15.0963 -89.2611,-36.3362 -129.5,-62.974 -8.525,-5.6435 -19.1599,-12.9803 -23.633,-16.3039 l -8.1331,-6.043 -17.3669,7.5023 c -77.3854,33.4298 -164.7311,62.8813 -247.1834,83.3463 -15.501,3.8474 -29.4699,7.327 -31.0421,7.7325 l -2.8586,0.7371 10.6979,12.5 c 71.2952,83.3052 161.2492,155.7376 258.0304,207.7703 116.5566,62.6647 246.5675,99.3447 376.4888,106.219 37.93856,2.0074 71.03876,1.9877 105.49996,-0.063 z m -41.8286,-422.4392 c 143.9697,-11.5674 285.3595,-73.5183 429.7936,-188.3169 173.3189,-137.7568 320.4642,-320.10609 421.8412,-522.76529 l 7.5511,-15.095 -2.3026,-7.905 c -14.4711,-49.67999 -35.3428,-103.0014 -58.2002,-148.68504 -63.6938,-127.30092 -153.8023,-235.52747 -267.3545,-321.11119 -128.7816,-97.06208 -282.4661,-158.09555 -442,-175.5337 -106.286,-11.617778 -213.84126,-4.813108 -315.49996,19.96063 -116.8412,28.47366 -226.3834,79.87754 -323.5,151.80591 -59.1875,43.83663 -114.8769,96.80934 -161.5386,153.65838 -111.9061,136.33794 -181.5876,302.77055 -199.9184,477.50001 -7.1063,67.7369 -6.5629,139.51669 1.5595,205.99999 11.4475,93.7006 37.3339,184.6557 76.8438,270 17.8739,38.6091 49.1327,95 52.6607,95 1.5201,0 35.6358,-5.1218 49.393,-7.4154 68.4763,-11.4163 145.1268,-30.4423 214.1916,-53.1661 14.4696,-4.7609 26.4979,-8.8297 26.7296,-9.0418 0.2317,-0.2122 -0.8933,-1.9372 -2.5,-3.8333 -1.6067,-1.8962 -7.2373,-8.5316 -12.5126,-14.7455 -92.7933,-109.3031 -145.9374,-259.7377 -145.904,-413.00929 0.038,-175.8664 69.0802,-357.61668 191.9449,-505.28861 41.1635,-49.47473 90.768,-97.08132 138.5505,-132.97024 86.2335,-64.76902 177.8933,-104.26213 269,-115.90296 32.28706,-4.12538 75.06796,-4.60095 103.99996,-1.15611 73.505,8.75201 135.8361,33.66269 190.4644,76.1193 13.5715,10.54766 36.2447,32.28318 46.8474,44.91001 62.4891,74.4188 92.8532,172.94262 86.1393,279.5 -10.0458,159.43841 -97.4614,320.92491 -269.8471,498.5 -113.5578,116.9762 -248.59716,219.6554 -390.94776,297.2628 l -7.3439,4.0038 6.8439,3.663 c 60.3088,32.2794 133.1238,53.2033 203.3438,58.4322 19.4278,1.4467 61.39926,1.2542 81.67136,-0.3746 z M 688.95934,1347.5484 c 111.7838,-52.1243 223.6897,-124.1669 314.46436,-202.4455 50.5882,-43.6242 101.7412,-94.8664 141.3566,-141.6029 108.6273,-128.15379 166.8833,-244.30989 181.3038,-361.5 2.5566,-20.77683 2.5606,-71.79322 0.01,-91.5 -7.2855,-56.22729 -23.2621,-101.18008 -51.1787,-144 -14.7733,-22.65573 -35.1335,-45.66571 -55.4917,-62.71028 -62.2652,-52.13064 -149.985,-74.82784 -238.73256,-61.77124 -91.7177,13.49356 -182.2987,64.34241 -255.5948,143.48152 -47.8342,51.64741 -88.2091,110.96602 -127.1708,186.83873 -95.2486,185.48348 -122.468,361.77268 -79.851,517.16127 21.7693,79.3742 60.5701,147.3974 116.9924,205.1039 9.7672,9.9896 26.0705,25.3961 26.8742,25.3961 0.1732,0 12.3313,-5.6032 27.0182,-12.4516 z"
     style="fill:#000000" />
</svg>
